<svg width="24" height="24" viewBox="0 0 24 24" fill="none" xmlns="http://www.w3.org/2000/svg">
<rect width="24" height="24" fill="#A449FF"/>
<rect width="24" height="24" fill="white" fill-opacity="0.5"/>
<path d="M10.9076 15.3895L12.7456 18.1344C12.8767 18.1446 13.0092 18.1497 13.1404 18.1497C13.7059 18.1497 14.2829 18.0516 14.8561 17.8593L13.1621 15.0762C12.2628 15.3029 11.4935 15.3564 10.9076 15.3882V15.3895Z" fill="white"/>
<path d="M17.4252 7.73973C18.4034 7.76902 19.4351 7.61618 19.8771 6.94492C19.9319 6.86086 19.9102 6.74749 19.8274 6.69018C18.7295 5.93358 17.4978 5.82022 16.5654 5.88645C17.2367 5.38078 17.5997 4.80761 17.6061 4.22933C17.6061 4.1389 17.5424 4.05993 17.4519 4.04464C15.6713 3.73513 13.8639 5.08528 13.3607 6.53988C12.6653 6.56535 11.98 6.68635 11.3712 6.89397C8.262 7.95371 6.52845 11.1686 7.25066 14.5376C7.89007 17.5207 9.78538 18.5983 11.6743 19.0504C11.0285 19.0186 10.3242 18.8555 9.7599 18.583C7.84167 17.6544 6.61762 16.359 6.12468 14.7299C5.28275 11.9519 6.83033 9.27202 6.84561 9.24527C7.17678 8.68229 7.00992 8.44665 6.88255 8.35621C6.6036 8.15878 6.06227 8.37532 5.67506 8.83768C3.06392 11.9558 4.04978 15.5591 6.07119 17.5882C7.33727 18.8581 9.47968 19.9701 12.1762 19.9701C13.0601 19.9701 14.004 19.8503 14.9962 19.5778C16.8953 19.0555 18.3359 17.9856 19.1587 16.4851C20.0261 14.9044 20.1408 12.9467 19.4874 10.826C19.0823 9.50766 18.3894 8.47212 17.4252 7.741V7.73973ZM15.0191 11.0718L15.6445 11.4705L14.5211 13.2333L13.8957 12.8346L15.0191 11.0718ZM9.9344 12.3048L11.78 13.2983L11.4285 13.9504L9.58285 12.9569L9.9344 12.3048ZM19.1766 13.9937C19.0466 15.2318 17.9971 17.0545 15.4675 18.1181C15.4407 18.1295 15.4153 18.1384 15.3885 18.1486C15.3809 18.1525 15.3732 18.1563 15.3643 18.1575C14.5517 18.4836 13.804 18.6084 13.1391 18.6084C12.9404 18.6084 12.7493 18.597 12.5659 18.5779C11.3113 18.4429 10.4324 17.9003 10.0949 17.6557C9.36759 17.1309 8.92052 16.4775 8.95745 15.9909C9.03006 15.0305 9.71787 14.9936 10.7585 14.9363C11.4463 14.8994 12.3023 14.8522 13.3404 14.5542C14.3084 14.2765 15.1592 13.6868 15.9095 13.1658C16.9361 12.4525 17.8239 11.8373 18.5932 12.3735C19.0403 12.6843 19.2517 13.2741 19.1766 13.9925V13.9937Z" fill="white"/>
<path d="M9.41604 16.0281C9.39948 16.2383 9.64276 16.7669 10.3637 17.2853C10.5777 17.4394 11.1101 17.7808 11.8782 17.9858L10.1739 15.4409C9.55233 15.5084 9.44533 15.6434 9.41604 16.0281Z" fill="white"/>
<path d="M18.3321 12.7522C18.2174 12.672 18.0926 12.6338 17.9525 12.6338C17.4952 12.6338 16.9017 13.0388 16.2151 13.5165L17.9067 15.7837C18.3665 15.1914 18.6607 14.5329 18.7231 13.9483C18.7804 13.4018 18.6391 12.9662 18.3334 12.7535L18.3321 12.7522Z" fill="white"/>
<path d="M13.7963 14.8878L15.4598 17.6212C16.2546 17.2659 16.9297 16.8124 17.4723 16.2711L15.6865 13.8765C15.1146 14.2611 14.4931 14.6382 13.7963 14.8865V14.8878Z" fill="white"/>
</svg>
