<svg width="24" height="24" viewBox="0 0 24 24" fill="none" xmlns="http://www.w3.org/2000/svg">
<path d="M10.9075 15.3895L12.7455 18.1344C12.8767 18.1446 13.0092 18.1497 13.1403 18.1497C13.7059 18.1497 14.2829 18.0516 14.8561 17.8593L13.162 15.0762C12.2627 15.3029 11.4934 15.3564 10.9075 15.3882V15.3895Z" fill="black"/>
<path d="M17.4251 7.73973C18.4034 7.76902 19.4351 7.61618 19.8771 6.94492C19.9318 6.86086 19.9102 6.74749 19.8274 6.69018C18.7294 5.93358 17.4978 5.82022 16.5654 5.88645C17.2366 5.38078 17.5997 4.80761 17.606 4.22933C17.606 4.1389 17.5423 4.05993 17.4519 4.04464C15.6712 3.73513 13.8638 5.08528 13.3607 6.53988C12.6652 6.56535 11.98 6.68635 11.3711 6.89397C8.26195 7.95371 6.52841 11.1686 7.25061 14.5376C7.89002 17.5207 9.78533 18.5983 11.6743 19.0504C11.0285 19.0186 10.3241 18.8555 9.75986 18.583C7.84162 17.6544 6.61757 16.359 6.12464 14.7299C5.2827 11.9519 6.83028 9.27202 6.84557 9.24527C7.17674 8.68229 7.00988 8.44665 6.8825 8.35621C6.60356 8.15878 6.06222 8.37532 5.67501 8.83768C3.06387 11.9558 4.04973 15.5591 6.07114 17.5882C7.33723 18.8581 9.47964 19.9701 12.1761 19.9701C13.0601 19.9701 14.0039 19.8503 14.9962 19.5778C16.8953 19.0555 18.3359 17.9856 19.1587 16.4851C20.0261 14.9044 20.1407 12.9467 19.4873 10.826C19.0823 9.50766 18.3894 8.47212 17.4251 7.741V7.73973ZM15.0191 11.0718L15.6445 11.4705L14.5211 13.2333L13.8956 12.8346L15.0191 11.0718ZM9.93436 12.3048L11.78 13.2983L11.4284 13.9504L9.58281 12.9569L9.93436 12.3048ZM19.1765 13.9937C19.0466 15.2318 17.9971 17.0545 15.4674 18.1181C15.4407 18.1295 15.4152 18.1384 15.3885 18.1486C15.3808 18.1525 15.3732 18.1563 15.3643 18.1575C14.5516 18.4836 13.8039 18.6084 13.1391 18.6084C12.9404 18.6084 12.7493 18.597 12.5659 18.5779C11.3113 18.4429 10.4324 17.9003 10.0948 17.6557C9.36755 17.1309 8.92047 16.4775 8.95741 15.9909C9.03001 15.0305 9.71782 14.9936 10.7585 14.9363C11.4463 14.8994 12.3022 14.8522 13.3403 14.5542C14.3083 14.2765 15.1592 13.6868 15.9094 13.1658C16.936 12.4525 17.8238 11.8373 18.5932 12.3735C19.0402 12.6843 19.2517 13.2741 19.1765 13.9925V13.9937Z" fill="black"/>
<path d="M9.41598 16.0276C9.39942 16.2378 9.6427 16.7664 10.3636 17.2848C10.5776 17.4389 11.11 17.7803 11.8781 17.9853L10.1738 15.4404C9.55227 15.5079 9.44527 15.643 9.41598 16.0276Z" fill="black"/>
<path d="M18.332 12.7518C18.2174 12.6715 18.0926 12.6333 17.9525 12.6333C17.4952 12.6333 16.9016 13.0383 16.2151 13.516L17.9066 15.7832C18.3664 15.1909 18.6607 14.5324 18.7231 13.9478C18.7804 13.4014 18.639 12.9657 18.3333 12.753L18.332 12.7518Z" fill="black"/>
<path d="M13.7963 14.8878L15.4598 17.6212C16.2546 17.2659 16.9297 16.8124 17.4723 16.2711L15.6865 13.8765C15.1146 14.2611 14.493 14.6382 13.7963 14.8865V14.8878Z" fill="black"/>
</svg>
