<svg width="556" height="180" viewBox="0 0 556 180" fill="none" xmlns="http://www.w3.org/2000/svg">
<path d="M74.6976 56.6874L84.8427 177.86H36.8386V73.4437L0 82.5417V40.471L113.737 0V42.3106L74.6976 56.6874Z" fill="black"/>
<path d="M162.702 70.8444L149.495 177.841H113.737L118.14 70.8444H162.702ZM142.032 15.9966C148.475 15.9966 154.058 18.2561 158.76 22.7951C163.462 27.3341 165.824 32.6929 165.824 38.8715C165.824 45.49 163.602 50.9088 159.14 55.1479C154.678 59.3869 148.975 61.5065 142.032 61.5065C135.088 61.5065 129.365 59.3869 124.923 55.1479C120.461 50.9088 118.24 45.49 118.24 38.8715C118.24 32.6929 120.601 27.3341 125.303 22.7951C130.005 18.2561 135.588 15.9966 142.032 15.9966Z" fill="black"/>
<path d="M218.73 14.3168L220.851 177.86H182.532L170.326 12.2173L218.75 14.3168H218.73ZM274.338 77.0229L260.431 119.014L289.826 177.84H245.363L220.231 107.976L234.738 60.1866L274.338 77.0229Z" fill="black"/>
<path d="M312.657 15.9966L334.768 177.841H294.608L280.661 38.7515L312.677 15.9966H312.657ZM396.299 70.8444L364.463 113.635L381.312 177.841H346.774L325.724 95.019L353.938 60.1868L396.319 70.8444H396.299Z" fill="black"/>
<path d="M453.329 31.3532L432.698 177.841H396.3L407.005 4.19922L453.329 31.3532Z" fill="black"/>
<path d="M552.178 137.05L486.165 131.871L483.924 120.873L518.661 117.774C529.067 110.735 521.743 93.1194 507.916 95.5788C501.593 96.6986 495.63 102.057 492.488 106.316C489.347 110.576 487.766 116.034 487.766 122.693C487.766 129.351 489.287 135.25 492.328 139.549C495.37 143.848 499.372 145.988 504.294 145.988C508.296 145.988 514.88 145.348 518.721 143.008L543.894 170.042C533.229 178.42 516.26 180 503.214 180C487.326 180 472.978 179.22 462.173 168.563C451.368 157.905 446.945 140.149 446.945 124.392C446.945 108.636 452.408 95.4989 463.334 84.6813C474.259 73.8837 487.666 68.4849 503.554 68.4849C519.442 68.4849 532.148 73.7637 542.694 84.3213C553.259 94.879 556 106.476 556 121.933L552.178 137.07V137.05Z" fill="black"/>
</svg>
